<svg xmlns="http://www.w3.org/2000/svg" width="11.278" height="10.177" viewBox="0 0 11.278 10.177">
  <path id="camera" d="M2.507,10.177A2.51,2.51,0,0,1,0,7.67v-3.3A2.49,2.49,0,0,1,2.469,1.867h.043a.036.036,0,0,0,.026-.019l.335-.706L3.026.829A1.428,1.428,0,0,1,4.331,0H6.947a1.425,1.425,0,0,1,1.3.828c.044.086.1.191.154.312l.335.706c.007.014.021.02.046.02l.132,0a2.508,2.508,0,0,1,2.36,2.5v3.3a2.509,2.509,0,0,1-2.507,2.507Zm1.411-8.9c-.026.051-.057.114-.093.187l-.01.022-.372.784a1.05,1.05,0,0,1-.823.586l-.112.007A1.508,1.508,0,0,0,1,4.373v3.3A1.508,1.508,0,0,0,2.507,9.177H8.771A1.508,1.508,0,0,0,10.278,7.67v-3.3a1.5,1.5,0,0,0-1.4-1.5l-.2-.008a1.042,1.042,0,0,1-.836-.588l-.329-.695-.146-.3A.433.433,0,0,0,6.943,1H4.338A.437.437,0,0,0,3.918,1.282ZM5.639,8.094a2.269,2.269,0,0,1,0-4.538l.127,0A2.269,2.269,0,0,1,5.64,8.094Zm-.1-3.534a1.265,1.265,0,1,0,.1,0Zm2.821-.035A.6.6,0,0,1,8.2,4.481a.563.563,0,0,1-.179-.122.569.569,0,0,1-.157-.386.547.547,0,0,1,.046-.219.565.565,0,0,1,.131-.19.616.616,0,0,1,.169-.108.567.567,0,0,1,.6.119.536.536,0,0,1,.106.145l.013.032a.542.542,0,0,1,.046.22.567.567,0,0,1-.162.392.554.554,0,0,1-.338.161l-.055,0Z" fill="#17af98"/>
</svg>
