<svg id="Card_Icon_Copy" data-name="Card / Icon Copy" xmlns="http://www.w3.org/2000/svg" xmlns:xlink="http://www.w3.org/1999/xlink" width="44" height="44" viewBox="0 0 44 44">
  <defs>
    <linearGradient id="linear-gradient" x1="0.987" y1="0.987" x2="0" gradientUnits="objectBoundingBox">
      <stop offset="0" stop-color="#14c2aa"/>
      <stop offset="1" stop-color="#17af98"/>
    </linearGradient>
  </defs>
  <rect id="Rectangle" width="44" height="44" rx="8" fill="url(#linear-gradient)"/>
  <g id="Delete" transform="translate(14.167 12.917)">
    <path id="Combined_Shape" data-name="Combined Shape" d="M7.406,18.144a3.3,3.3,0,0,1-2.2-1.217.75.75,0,0,1,1.174-.935,1.8,1.8,0,0,0,1.2.662,1.835,1.835,0,0,0,1.34-.375,1.667,1.667,0,0,0,.3-.29.75.75,0,0,1,1.168.941,3.138,3.138,0,0,1-.562.544,3.33,3.33,0,0,1-2.423.67Zm-3.654-3.7A4.54,4.54,0,0,1,.869,13.036,3.739,3.739,0,0,1,0,10.572v-.22A3.753,3.753,0,0,1,.628,8.459L.7,8.366a3.306,3.306,0,0,0,.811-1.571L1.5,6.855V6.509l.014-.727c.008-.205.02-.4.036-.579A5.469,5.469,0,0,1,3.611,1.489,6.639,6.639,0,0,1,7.8,0h.065a6.643,6.643,0,0,1,4.19,1.489,5.5,5.5,0,0,1,2.071,3.719c.007.085.013.171.018.277l.007.311v.5c0,.15,0,.252,0,.338l.008.2.043.175A3.363,3.363,0,0,0,14.821,8.2l.148.173.067.085a3.679,3.679,0,0,1,.631,1.929l0,.383a3.755,3.755,0,0,1-.909,2.3,4.479,4.479,0,0,1-2.84,1.371,38.5,38.5,0,0,1-4.088.219A38.243,38.243,0,0,1,3.752,14.445ZM1.846,9.338l-.075.126a2.279,2.279,0,0,0-.252.741l-.018.185v.2a2.229,2.229,0,0,0,.487,1.448,3.059,3.059,0,0,0,1.916.916,36.862,36.862,0,0,0,3.924.21,37.218,37.218,0,0,0,3.94-.211,3,3,0,0,0,1.872-.879,2.251,2.251,0,0,0,.526-1.507v-.141A2.171,2.171,0,0,0,13.793,9.3l.017.027-.139-.163a4.854,4.854,0,0,1-.917-1.786L12.686,7.1,12.672,7c-.01-.145-.015-.266-.018-.421V5.826c0-.111,0-.192-.006-.264l-.013-.217A4.672,4.672,0,0,0,7.866,1.5H7.8A4.655,4.655,0,0,0,3.042,5.338c-.021.235-.033.492-.04.788,0,.129,0,.244-.005.4v.424L2.981,7.1a4.81,4.81,0,0,1-1.13,2.23l.006-.01L1.8,9.383l.042-.046Z" transform="translate(0)" fill="#fff"/>
  </g>
</svg>
