<svg id="contact_us" data-name="contact us" xmlns="http://www.w3.org/2000/svg" width="16" height="16" viewBox="0 0 16 16">
  <rect id="Icon" width="16" height="16" fill="none"/>
  <g id="message-question">
    <path id="Vector" d="M0,0H16V16H0Z" fill="none" opacity="0"/>
    <path id="Vector-2" data-name="Vector" d="M13.333,3.333v4A3.149,3.149,0,0,1,10,10.667H7.333L4.367,12.64a.663.663,0,0,1-1.033-.553v-1.42A3.149,3.149,0,0,1,0,7.333v-4A3.149,3.149,0,0,1,3.333,0H10a3.149,3.149,0,0,1,3.333,3.333ZM7.167,7.613a.5.5,0,1,0-.5.5A.5.5,0,0,0,7.167,7.613ZM8.273,4.067a1.607,1.607,0,0,0-3.213,0,.5.5,0,0,0,1,0,.607.607,0,0,1,1.213,0c0,.173-.08.287-.327.453a1.551,1.551,0,0,0-.78,1.3v.14a.5.5,0,1,0,1,0V5.82c0-.187.08-.3.34-.473a1.529,1.529,0,0,0,.767-1.28Z" transform="translate(1.333 1.62)" fill="#17af98"/>
  </g>
</svg>
