<svg xmlns="http://www.w3.org/2000/svg" width="13.994" height="13.991" viewBox="0 0 13.994 13.991">
  <g id="Discount" transform="translate(-92 -294)">
    <path id="Vector" d="M5.5.619A2.111,2.111,0,0,1,8.485.613L9,1.123a1.05,1.05,0,0,0,.742.309h.721a2.108,2.108,0,0,1,2.107,2.105v.721A1.048,1.048,0,0,0,12.874,5l.5.5a2.12,2.12,0,0,1,.014,2.974l-.518.518a1.049,1.049,0,0,0-.308.742v.72a2.109,2.109,0,0,1-2.107,2.107H9.738A1.048,1.048,0,0,0,9,12.871l-.5.5A2.1,2.1,0,0,1,7,13.991a2.12,2.12,0,0,1-1.491-.608L5,12.871a1.048,1.048,0,0,0-.742-.307H3.537A2.109,2.109,0,0,1,1.43,10.457v-.72a1.078,1.078,0,0,0-.308-.749l-.5-.5a2.114,2.114,0,0,1-.007-2.98L1.122,5a1.052,1.052,0,0,0,.308-.749V3.537A2.108,2.108,0,0,1,3.537,1.432h.721A1.05,1.05,0,0,0,5,1.123ZM8.8,8.183a.612.612,0,1,0,.609.609A.611.611,0,0,0,8.8,8.183Zm.427-3.422a.61.61,0,0,0-.861,0l-3.6,3.6a.616.616,0,0,0,0,.868.6.6,0,0,0,.861,0l3.6-3.6A.617.617,0,0,0,9.227,4.762ZM5.2,4.587a.612.612,0,1,0,.609.609A.615.615,0,0,0,5.2,4.587Z" transform="translate(92 294)" fill="#17af98"/>
  </g>
</svg>
