<svg xmlns="http://www.w3.org/2000/svg" width="12.001" height="19" viewBox="0 0 12.001 19">
  <path id="distance" d="M5.5,19a9.724,9.724,0,0,1-4.324-.837A2.494,2.494,0,0,1-.5,16a2,2,0,0,1,.725-1.526,5.157,5.157,0,0,1,2-1.025l.575,1.9a4.03,4.03,0,0,0-.775.312A1.685,1.685,0,0,0,1.55,16a2.987,2.987,0,0,0,1.5.7A9.916,9.916,0,0,0,5.5,17a.837.837,0,0,1-.5-.163.911.911,0,0,1-.325-.437,10.582,10.582,0,0,0-1.45-2.975c-.57-.782-1.142-1.556-1.7-2.3A16.218,16.218,0,0,1,.138,8.85,6.463,6.463,0,0,1-.45,5.95,5.767,5.767,0,0,1,1.275,1.725,5.767,5.767,0,0,1,5.5,0,5.767,5.767,0,0,1,9.725,1.725,5.767,5.767,0,0,1,11.45,5.95a6.591,6.591,0,0,1-.575,2.9,14.24,14.24,0,0,1-1.4,2.275c-.531.73-1.1,1.5-1.687,2.3A10.358,10.358,0,0,0,6.325,16.4.911.911,0,0,1,6,16.837.835.835,0,0,1,5.56,17a9.956,9.956,0,0,0,2.4-.3A3,3,0,0,0,9.475,16,1.688,1.688,0,0,0,9,15.663a4.032,4.032,0,0,0-.775-.312l.575-1.9a5.04,5.04,0,0,1,1.987,1.025A2.014,2.014,0,0,1,11.5,16a2.494,2.494,0,0,1-1.675,2.163A9.732,9.732,0,0,1,5.5,19ZM6,2A3.824,3.824,0,0,0,3.2,3.15a3.827,3.827,0,0,0-1.15,2.8A4.768,4.768,0,0,0,2.6,8.338,19.451,19.451,0,0,0,4.075,10.5c.315.415.643.856.975,1.312A13.936,13.936,0,0,1,6,13.325a13.8,13.8,0,0,1,.95-1.513c.339-.465.667-.907.976-1.312A19.427,19.427,0,0,0,9.4,8.338,4.768,4.768,0,0,0,9.95,5.95,3.827,3.827,0,0,0,8.8,3.15,3.827,3.827,0,0,0,6,2ZM6,8.075A2.133,2.133,0,0,1,3.875,5.95,2.133,2.133,0,0,1,6,3.825,2.134,2.134,0,0,1,8.125,5.95,2.134,2.134,0,0,1,6,8.075Z" transform="translate(0.5)" fill="#17af98"/>
</svg>
