<svg id="draft_location_icon" data-name="draft location icon" xmlns="http://www.w3.org/2000/svg" width="7.917" height="9.583" viewBox="0 0 7.917 9.583">
  <g id="pin" transform="translate(0 0)">
    <path id="Shape" d="M3.958,9.583a.5.5,0,0,1-.322-.115,15.871,15.871,0,0,1-1.875-1.9,9.985,9.985,0,0,1-1.214-1.8A4.414,4.414,0,0,1,0,3.8,3.752,3.752,0,0,1,1.173,1.109,4,4,0,0,1,3.958,0,4,4,0,0,1,6.743,1.109,3.752,3.752,0,0,1,7.917,3.8a4.434,4.434,0,0,1-.544,1.977,9.942,9.942,0,0,1-1.21,1.8,14.251,14.251,0,0,1-1.883,1.9A.5.5,0,0,1,3.958,9.583Zm0-7.667A1.707,1.707,0,0,0,2.226,3.594,1.707,1.707,0,0,0,3.958,5.271,1.774,1.774,0,0,0,5.183,4.78,1.641,1.641,0,0,0,5.69,3.594,1.707,1.707,0,0,0,3.958,1.917Z" transform="translate(0 0)" fill="#c5cee0"/>
  </g>
</svg>
