<svg xmlns="http://www.w3.org/2000/svg" width="115.013" height="38" viewBox="0 0 115.013 38">
  <g id="Intersection_2" data-name="Intersection 2" transform="translate(-201.487 -150.5)" opacity="0.15">
    <path id="Intersection_2-2" data-name="Intersection 2" d="M-949.038-242.731c0-10.217,44.771-18.5,100-18.5q7.134,0,14.013.18v31.819a16,16,0,0,1-.745,4.839c-4.34.106-8.772.161-13.268.161C-904.267-224.23-949.038-232.513-949.038-242.731Z" transform="translate(1151.025 412.231)" fill="#313131"/>
    <path id="Intersection_2_-_Outline" data-name="Intersection 2 - Outline" d="M-849.038-261.73c4.694,0,9.413.061,14.026.18l.487.013v32.306a16.5,16.5,0,0,1-.768,4.99l-.108.34-.357.009c-4.373.107-8.841.162-13.281.162-13.513,0-26.622-.49-38.964-1.455a310.888,310.888,0,0,1-31.838-3.972c-9.221-1.706-16.469-3.7-21.54-5.914-5.413-2.368-8.158-4.945-8.158-7.659s2.745-5.291,8.158-7.659c5.072-2.218,12.319-4.208,21.54-5.914A310.9,310.9,0,0,1-888-260.275C-875.66-261.241-862.551-261.73-849.038-261.73Zm13.513,1.168c-4.45-.111-8.993-.168-13.513-.168-26.681,0-51.761,1.921-70.62,5.41-9.146,1.692-16.32,3.659-21.321,5.847-4.945,2.163-7.559,4.494-7.559,6.743s2.614,4.58,7.559,6.743c5,2.188,12.175,4.155,21.321,5.847,18.858,3.489,43.938,5.41,70.62,5.41,4.309,0,8.645-.051,12.9-.153a15.515,15.515,0,0,0,.618-4.348Z" transform="translate(1151.025 412.231)" fill="rgba(0,0,0,0)"/>
  </g>
</svg>
