<svg id="logout" xmlns="http://www.w3.org/2000/svg" width="16" height="16" viewBox="0 0 16 16">
  <rect id="Icon" width="16" height="16" fill="none"/>
  <g id="vuesax_bold_airplane" data-name="vuesax/bold/airplane">
    <g id="airplane">
      <path id="Vector" d="M12.253,6.915V7.8a.631.631,0,0,1-.953.62L7.96,6.975a.315.315,0,0,0-.473.313v1.94a.758.758,0,0,0,.2.48l1.547,1.553a.759.759,0,0,1,.16.7l-.3.907a.682.682,0,0,1-.947.393L6.56,11.928a.693.693,0,0,0-.873,0L4.1,13.262a.661.661,0,0,1-.933-.393l-.3-.907a.755.755,0,0,1,.16-.7L4.573,9.708a.789.789,0,0,0,.193-.48V7.288a.315.315,0,0,0-.473-.313L.953,8.415A.631.631,0,0,1,0,7.8v-.88A1.354,1.354,0,0,1,.76,5.762l3.8-1.633a.39.39,0,0,0,.2-.313V1.775A2.117,2.117,0,0,1,5.8.075a.72.72,0,0,1,.64,0A2.1,2.1,0,0,1,7.487,1.768v2.04a.39.39,0,0,0,.2.313l.693.293,3.113,1.34a1.373,1.373,0,0,1,.76,1.16Z" transform="translate(1.873 1.332)" fill="#17af98"/>
      <path id="Vector-2" data-name="Vector" d="M0,0H16V16H0Z" transform="translate(16 16) rotate(180)" fill="none" opacity="0"/>
    </g>
  </g>
</svg>
