<svg id="people" xmlns="http://www.w3.org/2000/svg" width="16" height="16" viewBox="0 0 16 16">
  <path id="Vector" d="M0,0H16V16H0Z" fill="none" opacity="0"/>
  <path id="Vector-2" data-name="Vector" d="M1.993,3.847a.492.492,0,0,0-.14,0,1.93,1.93,0,1,1,.14,0Z" transform="translate(9.693 1.333)" fill="#17af98"/>
  <path id="Vector-3" data-name="Vector" d="M2.793,3.128a4.14,4.14,0,0,1-2.76.56A4.354,4.354,0,0,0,.427,1.9,4.1,4.1,0,0,0,0,.042,4.158,4.158,0,0,1,2.787.6,1.412,1.412,0,0,1,2.793,3.128Z" transform="translate(11.067 6.672)" fill="#17af98"/>
  <path id="Vector-4" data-name="Vector" d="M0,1.927a1.923,1.923,0,1,1,1.993,1.92.492.492,0,0,0-.14,0A1.916,1.916,0,0,1,0,1.927Z" transform="translate(2.44 1.333)" fill="#17af98"/>
  <path id="Vector-5" data-name="Vector" d="M3.037,1.9A4.342,4.342,0,0,0,3.43,3.709,4.119,4.119,0,0,1,.79,3.135,1.416,1.416,0,0,1,.79.6,4.094,4.094,0,0,1,3.457.029,4.239,4.239,0,0,0,3.037,1.9Z" transform="translate(1.33 6.671)" fill="#17af98"/>
  <path id="Vector-6" data-name="Vector" d="M2.38,4.58a.753.753,0,0,0-.173,0,2.3,2.3,0,1,1,.173,0Z" transform="translate(5.7 6)" fill="#17af98"/>
  <path id="Vector-7" data-name="Vector" d="M4.928.575a1.369,1.369,0,0,1,0,2.447,4.074,4.074,0,0,1-4.173,0,1.369,1.369,0,0,1,0-2.447,4.074,4.074,0,0,1,4.173,0Z" transform="translate(5.158 11.385)" fill="#17af98"/>
</svg>
