<svg id="refer_a_friend" data-name="refer a friend" xmlns="http://www.w3.org/2000/svg" width="16" height="16" viewBox="0 0 16 16">
  <rect id="Icon" width="16" height="16" fill="none"/>
  <g id="user-octagon">
    <path id="Vector" d="M0,0H16V16H0Z" fill="none" opacity="0"/>
    <path id="Vector-2" data-name="Vector" d="M12.113,4.387v4.56a2.1,2.1,0,0,1-1.047,1.82l-3.96,2.287a2.109,2.109,0,0,1-2.1,0l-3.96-2.287A2.116,2.116,0,0,1,0,8.947V4.387a2.1,2.1,0,0,1,1.047-1.82L5,.28a2.109,2.109,0,0,1,2.1,0l3.96,2.287a2.128,2.128,0,0,1,1.053,1.82ZM4.5,5.113A1.553,1.553,0,1,0,6.053,3.56,1.551,1.551,0,0,0,4.5,5.113ZM8.393,8.727A2.806,2.806,0,0,0,6.053,7.6a2.806,2.806,0,0,0-2.34,1.127.669.669,0,0,0,.553,1.047H7.84a.673.673,0,0,0,.553-1.047Z" transform="translate(1.947 1.333)" fill="#17af98"/>
  </g>
</svg>
