<svg xmlns="http://www.w3.org/2000/svg" width="22" height="16" viewBox="0 0 22 16">
  <g id="Shipping_car" data-name="Shipping car" transform="translate(-1 -4)">
    <path id="Subtraction_1" data-name="Subtraction 1" d="M-1209,1283a3,3,0,0,1-3-3h-6a3,3,0,0,1-3,3,3,3,0,0,1-3-3h-2v-11a2,2,0,0,1,2-2h14v4h3l3,4v5h-2A3,3,0,0,1-1209,1283Zm0-4.5a1.5,1.5,0,0,0-1.5,1.5,1.5,1.5,0,0,0,1.5,1.5,1.5,1.5,0,0,0,1.5-1.5A1.5,1.5,0,0,0-1209,1278.5Zm-12,0a1.5,1.5,0,0,0-1.5,1.5,1.5,1.5,0,0,0,1.5,1.5,1.5,1.5,0,0,0,1.5-1.5A1.5,1.5,0,0,0-1221,1278.5Zm11-6v2.5h4.459l-1.96-2.5Zm-13,.5v1h9v-1Zm0-3v1h9v-1Z" transform="translate(1227 -1263)" fill="#17af98"/>
  </g>
</svg>
