<svg xmlns="http://www.w3.org/2000/svg" width="16" height="16" viewBox="0 0 16 16">
  <path id="Vector" d="M11.612,0C14.372,0,16,1.764,16,4.784H12.615v.031A2.97,2.97,0,0,0,9.771,7.9a2.97,2.97,0,0,0,2.844,3.081H16v.277C16,14.236,14.372,16,11.612,16H4.388C1.628,16,0,14.236,0,11.255V4.745C0,1.764,1.628,0,4.388,0ZM15.4,6.109a.624.624,0,0,1,.6.647V9.005a.631.631,0,0,1-.6.647H12.679a1.725,1.725,0,0,1-1.671-1.417,1.906,1.906,0,0,1,.346-1.469,1.612,1.612,0,0,1,1.261-.658ZM13,7.149h-.263a.581.581,0,0,0-.432.189.683.683,0,0,0-.18.466.647.647,0,0,0,.612.67H13a.665.665,0,0,0,0-1.325ZM8.306,3.459H3.79a.638.638,0,0,0-.612.655.647.647,0,0,0,.612.67H8.306a.639.639,0,0,0,.612-.662A.639.639,0,0,0,8.306,3.459Z" fill="#17af98"/>
</svg>
